<?xml version="1.0" standalone="no"?>
<!DOCTYPE svg PUBLIC "-//W3C//DTD SVG 1.1//EN" "http://www.w3.org/Graphics/SVG/1.1/DTD/svg11.dtd" >
<svg xmlns="http://www.w3.org/2000/svg">
<metadata>
Created by FontForge 20120731 at Tue Jun  6 09:40:41 2017
 By admin
</metadata>
<defs>
<font id="iconfont" horiz-adv-x="1024" >
  <font-face 
    font-family="iconfont"
    font-weight="500"
    font-stretch="normal"
    units-per-em="1024"
    panose-1="2 0 6 3 0 0 0 0 0 0"
    ascent="896"
    descent="-128"
    x-height="792"
    bbox="-34.0588 -212 2599.2 896.4"
    underline-thickness="0"
    underline-position="0"
    unicode-range="U+0078-EAF6"
  />
<missing-glyph 
 />
    <glyph glyph-name=".notdef" 
 />
    <glyph glyph-name=".notdef" 
 />
    <glyph glyph-name=".null" horiz-adv-x="0" 
 />
    <glyph glyph-name="nonmarkingreturn" horiz-adv-x="341" 
 />
    <glyph glyph-name="x" unicode="x" horiz-adv-x="1001" 
d="M281 543q-27 -1 -53 -1h-83q-18 0 -36.5 -6t-32.5 -18.5t-23 -32t-9 -45.5v-76h912v41q0 16 -0.5 30t-0.5 18q0 13 -5 29t-17 29.5t-31.5 22.5t-49.5 9h-133v-97h-438v97zM955 310v-52q0 -23 0.5 -52t0.5 -58t-10.5 -47.5t-26 -30t-33 -16t-31.5 -4.5q-14 -1 -29.5 -0.5
t-29.5 0.5h-32l-45 128h-439l-44 -128h-29h-34q-20 0 -45 1q-25 0 -41 9.5t-25.5 23t-13.5 29.5t-4 30v167h911zM163 247q-12 0 -21 -8.5t-9 -21.5t9 -21.5t21 -8.5q13 0 22 8.5t9 21.5t-9 21.5t-22 8.5zM316 123q-8 -26 -14 -48q-5 -19 -10.5 -37t-7.5 -25t-3 -15t1 -14.5
t9.5 -10.5t21.5 -4h37h67h81h80h64h36q23 0 34 12t2 38q-5 13 -9.5 30.5t-9.5 34.5q-5 19 -11 39h-368zM336 498v228q0 11 2.5 23t10 21.5t20.5 15.5t34 6h188q31 0 51.5 -14.5t20.5 -52.5v-227h-327z" />
    <glyph glyph-name="twitter" unicode="&#xe634;" 
d="M672 674q49 1 81.5 -13.5t63.5 -43.5q38 3 94 31q17 10 23 13q-21 -57 -59 -86q-17 -13 -20 -15v0q17 0 34.5 4.5t39.5 13t29 10.5v-1q-27 -43 -62 -71q-5 -4 -15.5 -12t-12.5 -11q0 -75 -9 -118q-35 -155 -125.5 -258t-234.5 -147q-54 -17 -125.5 -21t-133.5 10
q-63 16 -108 35q-28 12 -52 27q-10 6 -16 10l28 -2.5t30 0.5q8 1 26 2t27 3q67 15 110 40q3 2 12 7t14.5 8t12.5 8t11 10q-26 -1 -55 9q-82 29 -116 118q68 -8 82 3q-24 2 -61 25q-86 54 -86 157q6 -3 19 -9t38 -11q20 -4 25 -2v0q-5 5 -17 14t-17 15q-64 80 -41 167
q5 22 19 48q1 0 1 -0.5v-0.5q2 -4 9 -11l8 -8q21 -26 55 -52q52 -41 103 -66t121 -43q43 -10 82 -10q-5 19 -4.5 43t5.5 43q25 89 104 123q17 7 41 12q8 1 22 3v0z" />
    <glyph glyph-name="waterfall" unicode="&#xe800;" 
d="M320 108q-13 0 -22.5 -9.5t-9.5 -22.5v-96q0 -13 9.5 -22.5t22.5 -9.5t22.5 9.5t9.5 22.5v96q0 13 -9.5 22.5t-22.5 9.5zM576 108q-13 0 -22.5 -9.5t-9.5 -22.5v-128q0 -13 9.5 -22.5t22.5 -9.5t22.5 9.5t9.5 22.5v128q0 13 -9.5 22.5t-22.5 9.5zM448 108
q-13 0 -22.5 -9.5t-9.5 -22.5v-224q0 -13 9.5 -22.5t22.5 -9.5t22.5 9.5t9.5 22.5v224q0 13 -9.5 22.5t-22.5 9.5zM704 108q-13 0 -22.5 -9.5t-9.5 -22.5v-224q0 -13 9.5 -22.5t22.5 -9.5t22.5 9.5t9.5 22.5v224q0 13 -9.5 22.5t-22.5 9.5zM895 457q-11 136 -112 229.5
t-239 93.5q-122 0 -218.5 -71.5t-126.5 -184.5h-7q-79 0 -135.5 -56.5t-56.5 -135.5t56.5 -135.5t135.5 -56.5h672q66 0 113 47t47 113q0 58 -37 102t-92 55zM864 204h-672q-53 0 -90.5 37.5t-37.5 90.5t37.5 90.5t90.5 37.5h32q12 0 20.5 7.5t10.5 18.5q19 100 100.5 165
t188.5 65q119 0 203.5 -84.5t84.5 -203.5q0 -13 9.5 -22.5t22.5 -9.5q40 0 68 -28t28 -68t-28 -68t-68 -28z" />
    <glyph glyph-name="home" unicode="&#xe603;" 
d="M1024 222l-512 397l-512 -397v162l512 397l512 -397v-162zM896 236v-384h-256v256h-256v-256h-256v384l384 288z" />
    <glyph glyph-name="tag" unicode="&#xe60d;" 
d="M704 396q-40 0 -68 28t-28 68t28 68t68 28t68 -28t28 -68t-28 -68t-68 -28zM704 524q-13 0 -22.5 -9.5t-9.5 -22.5t9.5 -22.5t22.5 -9.5t22.5 9.5t9.5 22.5t-9.5 22.5t-22.5 9.5zM896 524zM467 -116q-51 0 -83 32l-256 256q-33 37 -31.5 83.5t31.5 76.5l288 288
q10 10 24.5 10.5t24.5 -8.5q24 -25 -5 -54l-279 -279q-21 -23 -20.5 -38.5t21.5 -36.5l249 -249q17 -17 32.5 -17t35.5 19l333 333q19 19 25.5 39t6.5 57v128q0 83 -22.5 105.5t-105.5 22.5h-192q-13 0 -22.5 9.5t-9.5 22.5t9.5 22.5t22.5 9.5h192q109 0 150.5 -41.5
t41.5 -150.5v-128q0 -57 -12 -88.5t-52 -71.5l-320 -320q-32 -32 -77 -32z" />
    <glyph glyph-name="iconfontdelete" unicode="&#xe617;" 
d="M710 447h-17v-428h-56v428h-94v-428h-56v428h-94v-428h-56v428h-36h-77v-448q0 -30 22.5 -52t54.5 -22h409q32 0 54.5 22t22.5 52v448q0 1 -9 1t-30.5 -0.5t-37.5 -0.5zM824 581h-168v46q0 19 -26 33.5t-49 14.5h-150q-24 0 -49.5 -14.5t-25.5 -33.5v-46h-169
q-15 0 -26.5 -11t-11.5 -26.5t11.5 -26.5t26.5 -11h637q16 0 27 11t11 26.5t-11 26.5t-27 11zM581 581h-150v19h150v-19z" />
    <glyph glyph-name="mobile" unicode="&#xe6b2;" 
d="M832 -57q0 -40 -29 -69t-70 -29h-442q-41 0 -70 29t-29 69v714q0 40 29 69t70 29h442q41 0 70 -29t29 -69v-714v0zM775 657q0 17 -12 29t-30 12h-442q-18 0 -30 -12t-12 -29v-714q0 -17 12 -29t30 -12h442q18 0 30 12t12 29v714v0zM803 30h-583q-6 0 -10 4t-4 10t4 10
t10 4h583q6 0 10 -4t4 -10t-4 -10t-10 -4zM803 599h-583q-6 0 -10 4t-4 10t4 10t10 4h583q6 0 10 -4t4 -10t-4 -10t-10 -4zM548 -31q0 -10 -7.5 -17.5t-17.5 -7.5h-7q-11 0 -18 7.5t-7 17.5v7q0 11 7 18t18 7h7q10 0 17.5 -7t7.5 -18v-7zM576 346q-2 0 -4 1q-14 4 -9 18
l4 11q4 13 17.5 8.5t9.5 -18.5l-4 -11q-4 -9 -14 -9zM522 192h-5q-13 5 -8 18l40 115q5 14 18.5 9t8.5 -18l-41 -115q-3 -9 -13 -9zM464 299q-2 0 -4 1q-14 4 -9 18l59 168q5 13 18.5 8.5t8.5 -18.5l-59 -168q-3 -9 -14 -9zM437 220q-3 0 -5 1q-13 5 -9 18l9 25
q5 13 18.5 8.5t8.5 -18.5l-9 -24q-3 -10 -13 -10z" />
    <glyph glyph-name="html" unicode="&#xe60f;" 
d="M332 513.5q-17 16.5 -40.5 16.5t-39.5 -17l-174 -173q-16 -17 -16 -40.5t16 -39.5l174 -174q16 -17 39.5 -17t40.5 17t17 40.5t-17 39.5l-133 134l133 133q17 17 17 40.5t-17 40zM946 340l-173 173q-17 17 -40.5 17t-40 -16.5t-16.5 -40t17 -40.5l133 -133l-133 -134
q-17 -16 -17 -39.5t16.5 -40.5t40 -17t40.5 17l173 174q17 16 17 39.5t-17 40.5zM599 526.5q-22 8.5 -43.5 -1t-30.5 -31.5l-133 -347q-9 -22 0.5 -43.5t31.5 -30.5q10 -4 21 -4q17 0 31.5 10t21.5 27l133 347q9 22 -0.5 43.5t-31.5 30z" />
    <glyph glyph-name="fontsize" unicode="&#xe6d8;" 
d="M329 692v-157h261v-627h157v627h261v157h-679zM16 274h157v-366h156v366h157v157h-470v-157z" />
    <glyph glyph-name="svg351" unicode="&#xe769;" 
d="M204 20q-12 0 -20 -8t-8 -20t8 -20t20 -8t20 8t8 20t-8 20t-20 8zM820 636q-12 0 -20 -8t-8 -20t8 -20t20 -8t20 8t8 20t-8 20t-20 8zM204 580q12 0 20 8t8 20t-8 20t-20 8t-20 -8t-8 -20t8 -20t20 -8zM820 20q-12 0 -20 -8t-8 -20t8 -20t20 -8t20 8t8 20t-8 20t-20 8z
M848 748h-672q-46 0 -79 -33t-33 -79v-672q0 -46 33 -79t79 -33h672q46 0 79 33t33 79v672q0 46 -33 79t-79 33zM904 -36q0 -23 -16.5 -39.5t-39.5 -16.5h-672q-23 0 -39.5 16.5t-16.5 39.5v672q0 23 16.5 39.5t39.5 16.5h672q23 0 39.5 -16.5t16.5 -39.5v-672zM512 636
q-139 0 -237.5 -98.5t-98.5 -237.5t98.5 -237.5t237.5 -98.5t237.5 98.5t98.5 237.5t-98.5 237.5t-237.5 98.5zM512 20q-116 0 -198 82t-82 198t82 198t198 82t198 -82t82 -198t-82 -198t-198 -82zM512 468q-70 0 -119 -49t-49 -119t49 -119t119 -49t119 49t49 119t-49 119
t-119 49zM512 188q-46 0 -79 33t-33 79t33 79t79 33t79 -33t33 -79t-33 -79t-79 -33z" />
    <glyph glyph-name="git" unicode="&#xe7d5;" horiz-adv-x="1025" 
d="M1005 346l-447 447q-20 19 -47 19t-47 -19l-104 -104l79 -78q19 9 41 9q40 0 68 -28t28 -68q0 -22 -9 -41l128 -128q19 9 41 9q40 0 68 -28t28 -68t-28 -68t-68 -28t-68 28t-28 68q0 22 9 41l-128 128q-4 -2 -9 -3v-267q28 -10 46 -35t18 -56q0 -40 -28 -68t-68 -28
t-68 28t-28 68q0 31 18 56t46 35v267q-28 10 -46 34.5t-18 55.5q0 22 9 41l-78 79l-296 -296q-19 -20 -19 -47t19 -47l447 -447q20 -19 47 -19t47 19l445 445q19 20 19 47t-19 47v0z" />
    <glyph glyph-name="svg" unicode="&#xe77b;" horiz-adv-x="1025" 
d="M928 396q-43 0 -72 -32h-189l134 134q43 -2 73 28q28 28 28 68t-28 68t-68 28t-68 -28q-30 -30 -28 -73l-134 -134v189q32 29 32 72q0 40 -28 68t-68 28t-68 -28t-28 -68q0 -43 32 -72v-189l-134 134q2 43 -28 73q-28 28 -68 28t-68 -28t-28 -68t28 -68q30 -30 73 -28
l134 -134h-189q-29 32 -72 32q-40 0 -68 -28t-28 -68t28 -68t68 -28q43 0 72 32h189l-134 -134q-43 2 -73 -28q-28 -28 -28 -68t28 -68t68 -28t68 28q30 30 28 73l134 134v-189q-32 -29 -32 -72q0 -40 28 -68t68 -28t68 28t28 68q0 43 -32 72v189l134 -134q-2 -43 28 -73
q28 -28 68 -28t68 28t28 68t-28 68q-30 30 -73 28l-134 134h189q29 -32 72 -32q40 0 68 28t28 68t-28 68t-68 28v0z" />
    <glyph glyph-name="github" unicode="&#xeaf6;" 
d="M951 384q0 -143 -84 -258t-216 -159q-16 -2 -23 4.5t-7 17.5v120q0 56 -30 81q33 4 59 10.5t53.5 22t46.5 38.5t30.5 60t11.5 86q0 69 -45 118q21 52 -5 116q-16 5 -46 -6.5t-53 -24.5l-21 -14q-53 15 -110 15t-110 -15q-9 6 -24 15.5t-47.5 22t-49.5 7.5
q-25 -64 -4 -116q-45 -49 -45 -118q0 -49 11.5 -86t30 -60t46 -38t53.5 -22t59 -11q-23 -20 -28 -59q-12 -5 -26 -8t-32.5 -3t-37 12.5t-32.5 35.5q-10 18 -27 29.5t-29 13.5l-11 2q-12 0 -16.5 -2.5t-3 -6.5t5 -8t7.5 -7l4 -3q13 -5 25 -21.5t18 -29.5l6 -13q7 -22 25 -35
t38.5 -17t39.5 -4t32 2l13 2v-51v-30q0 -11 -7.5 -17.5t-22.5 -4.5q-132 44 -216 158.5t-84 258.5q0 119 59 220t160 160t220 59t220 -59t160 -160t59 -220v0z" />
    <glyph glyph-name="noun157872cc" unicode="&#xe636;" 
d="M425 455q-6 5 -12 7q-10 -19 -3 -38q5 -12 15 -20q6 -5 13 -7q10 18 2 38q-5 12 -15 20zM551 535q-9 -4 -17 -11q-20 -17 -27 -42q-1 -3 -2 -7q-2 -15 0 -30q4 -17 13 -31q9 4 16 10q18 15 26 36q1 4 2 7q7 25 -2 50q-4 10 -9 18zM505 558q8 -6 17 -10q9 13 12 29
q4 17 0 35q0 2 -1 4q-7 26 -28 43q-7 6 -16 10q-21 -31 -11 -68q7 -26 27 -43zM558 616q-7 -25 2 -49q4 -10 10 -19q8 4 16 10q20 17 27 43q10 37 -11 68q-9 -4 -16 -10q-18 -15 -26 -37zM545 652q10 7 15 18q3 7 4 15q2 14 -4 26q-3 6 -7 11q-14 -10 -19 -26q-1 -4 -1 -7
q-1 -9 1 -18q3 -11 11 -19zM666 631q10 18 2 38t-28 27q-9 -19 -1.5 -38.5t27.5 -26.5zM418 478q4 3 7 7q21 25 20 56q-1 29 -20 51q-5 6 -11 11q-28 -26 -26 -63q1 -38 30 -62zM459 644q1 21 -15 36q-16 -13 -17 -34q-1 -22 14 -36q17 13 18 34zM859 441q-8 -13 -11 -28
q5 -2 11 -3q30 -6 57 10q16 9 27 23q10 15 14 33q-7 2 -14 3q-29 5 -55 -10q-18 -10 -29 -28zM338 598q8 -13 23 -19q10 19 3 39q-8 18 -26 26h-2q-10 -18 -2 -38q1 -4 4 -8zM859 371l-8 -4q-3 -1 -5 -3q-28 -19 -35 -53q17 -6 35 -4q7 1 13 2q11 3 20 9q33 19 41 56
q-31 11 -61 -3zM645 561q-9 -36 12 -68q9 5 16 11q21 17 28 43q10 36 -12 68q-8 -4 -16 -11q-21 -17 -28 -43zM859 507q-8 -12 -8 -26h8q16 0 29 11q16 14 16 35q-21 3 -37 -11q-5 -4 -8 -9zM928 393q7 -5 15 -7q11 -4 23 -1q20 4 31 22q-17 13 -38 9q-9 -2 -16 -7
q-9 -6 -15 -16zM743 585q-15 -28 -8 -59l8 2q16 2 29 11q14 8 23 22q23 30 14 67q-20 -2 -37 -12q-13 -9 -23 -22q-3 -4 -6 -9zM846 547q7 0 13 3q2 1 5 2q18 11 22 31q-13 5 -27 1q-6 -1 -11 -4q-1 0 -2 -1q-17 -11 -21 -30q10 -4 21 -2zM723 612q12 5 20 15q5 5 8 12
q7 20 -3 39q-2 -1 -5 -3q-14 -7 -21 -21q-1 -2 -1 -4q-7 -18 1 -36q1 -1 1 -2zM772 498q-3 -3 -7 -6q-16 -17 -22 -39q-3 -13 -2 -26h2q15 -1 29 4q20 6 34 20q27 27 24 65q-33 2 -58 -18zM177 511q4 -4 10 -6q12 -5 26 -3h1q0 5 -1 10q-4 15 -17 24q-4 4 -9 6q-14 6 -28 3
q1 -21 18 -34zM743 208q23 8 29 11q52 20 74 47q7 8 13 19q4 9 7 18q-3 -3 -7 -5q-6 -4 -13 -8q-25 -13 -74 -27q-9 -2 -29 -8q-13 -4 -18 -5q9 15 18 29q14 19 29 35q19 19 39 33q-18 -7 -39 -21q-14 -9 -29 -22q-10 -9 -21 -19q-22 -22 -46 -50l-3 -2q-60 -22 -87 -53
q-11 -13 -18 -28q-1 49 18 90q25 53 87 92q21 13 49 27q9 4 21 9q6 3 15.5 7t13.5 6q28 12 42 21.5t14 21.5q-21 -18 -56 -25q-10 -2 -29 -5q-14 -2 -21 -4q-13 -2 -23 -5q11 32 15 49.5t3 39t-10 47.5q0 -52 -7.5 -82.5t-26.5 -52.5q-9 -10 -21 -21q-9 -7 -31.5 -22
t-34.5 -25q-15 -12 -26 -25q-2 -2 -4 -5q0 16 4 33q6 24 26 62q15 29 20 40.5t13.5 37.5t6.5 49.5t-12 51.5q-4 -58 -28 -106q-6 -12 -26 -44q-18 -30 -24 -50l-2 2q-17 14 -29 27q-14 16 -22.5 33t-12 29.5t-2.5 36.5t2 34.5t6 42.5q-17 -52 -20.5 -87.5t4 -57.5
t17.5 -39.5t19 -47t9 -67.5q-17 22 -44.5 53t-35.5 41q-28 35 -42 72.5t-14 96.5q-4 -23 -5 -44t2.5 -39t8 -32.5t14 -31.5t17 -28t19.5 -28q23 -32 33 -47t25 -47t22 -64q5 -20 7 -41q-3 4 -7 7q-35 40 -80 71q-6 5 -13 9q-5 9 -26.5 67.5t-47.5 86.5q-6 5 -11 10
q6 -8 11 -17q13 -25 25.5 -70.5t17.5 -56.5q-15 9 -43 25q-24 14 -33 19q-36 21 -65 40q-11 7 -20 13q0 -17 20 -35q11 -11 65 -46q20 -14 33 -24q23 -18 33 -35q-10 3 -33 8q-16 3 -33 5q-34 5 -65 8q-14 1 -27 1q-14 1 -26 1q-62 -1 -87 -16q-2 -1 -3 -1h3q46 -1 87 -4
q13 -2 26 -3q14 -2 27 -5q35 -6 65 -16q17 -5 33 -12q54 -23 87 -61q31 -34 44 -81q6 -14 4 -66t-15 -69h158q-11 14 -19 49t-11 65q-2 16 -1 23q0 1 0.5 2l0.5 1q15 108 87 153q20 12 49 23q8 4 21 8zM733 145q-5 5 -11 8q-12 6 -25 5q-1 -21 14 -36q5 -5 11 -8
q10 -5 21 -5h4q1 11 -4 21q-3 8 -10 15zM240 165q-3 -1 -5 -2q-14 -5 -22 -16q-4 -5 -6 -11q3 -1 6 -3q13 -5 27 -2q3 1 5 2q20 7 28 27q-16 9 -33 5zM846 185q-22 16 -50 16q-12 0 -24 -3q-16 -5 -29 -16q-5 -4 -9 -9q4 -5 9 -10q13 -10 29 -15q12 -4 24 -4q28 0 50 16
q7 6 13 12v1v0q-6 7 -13 12zM920 168q-19 9 -38 1q5 -20 24 -29q18 -9 37 -2q1 0 2 1l-2 6q-7 16 -23 23zM943 304q-4 1 -7 1q-21 4 -37 -10q11 -18 32 -21q6 -1 12 0q14 1 25 10q-9 15 -25 20zM962 357q-10 -1 -19 -7q-9 -5 -14 -12q6 -6 14 -9q10 -5 22 -4q21 2 33 20
q-15 14 -36 12zM305 509q15 -9 33 -11q2 -1 5 -1q5 26 -5 50q-4 10 -11 18q-9 12 -22 20q-18 11 -38 12q-8 -37 15 -67q9 -12 23 -21zM901 257q-25 -5 -42 -22q-8 -7 -13 -16l-2 -2q1 -1 2 -1q6 -5 13 -8q25 -12 53 -7q16 3 31 13q15 11 25 27q-12 9 -25 14q-21 6 -42 2z
M187 165q-24 22 -57 22q-16 0 -30 -6q-19 -7 -33 -23q14 -15 33 -23q14 -5 30 -5q33 0 57 22l6 6q-3 4 -6 7zM214 552q8 -19 26 -26q1 -1 2 -1q10 18 2 38q-2 5 -4 9q-9 13 -23 18q-3 -5 -4 -10q-3 -12 0 -24q0 -2 1 -4zM168 420q9 -6 19 -10q12 -4 26 -5q12 0 23 3
q-3 28 -23 49q-6 5 -12.5 10t-13.5 8q-27 11 -54 4q4 -38 35 -59zM240 382l-0.5 -0.5t-1.5 -0.5q1 -5 2 -9q7 -32 34 -50q14 -10 31 -13q16 -3 33 0q2 0 4 1q-1 9 -4 18q-10 26 -32 41q0 1 -1 1q-30 20 -65 12zM100 239q1 2 3 4q-2 1 -3 2q-16 10 -35 7q-20 -4 -31 -22
q16 -13 37 -9q18 3 29 18zM288 422q8 -7 17 -11q15 -8 33 -9q8 -1 16 0q0 28 -16 50q-6 7 -13 13q-9 8 -20 13q-22 10 -46 7q0 -38 29 -63zM83 288q9 0 17 2q11 3 20 11q-8 11 -20 16q-7 3 -14 3q-21 2 -36 -13q12 -17 33 -19zM198 294q-6 1 -11 2q-31 3 -57 -15
q17 -34 54 -43h3q13 -3 26 -2q14 2 27 8q6 3 12 7q-5 9 -12 18q-12 12 -27 20q-7 3 -15 5zM121 337q30 -20 66 -12h2q-1 6 -2 11q-8 31 -34 49q-24 16 -53 14q-8 0 -15 -2q2 -22 15 -39q9 -12 21 -21z" />
    <glyph glyph-name="database" unicode="&#xe693;" 
d="M856 239q14 20 14 -2v-103q0 -76 -106.5 -138.5t-251.5 -62.5q-143 0 -250.5 62.5t-107.5 138.5v103q0 8 4 10t10 -8q33 -54 128 -88.5t216 -34.5t216 34.5t128 88.5v0zM858 499q8 16 12 0v-119q0 -70 -104 -117t-254 -47q-147 0 -252.5 47t-105.5 117v119q0 20 14 0
q31 -47 127 -77t217 -30t217 30t129 77v0zM512 835q147 0 252.5 -40t105.5 -96v-65q0 -60 -105.5 -102t-252.5 -42t-252.5 42t-105.5 102v65q0 56 105.5 96t252.5 40v0v0z" />
    <glyph glyph-name="iconfonticonfontweibiaoti10153" unicode="&#xe6ef;" 
d="M499 709l-336 -336q-29 -29 -29 -69.5t29 -69.5l199 -199q29 -29 69.5 -29t69.5 29l336 336q13 13 21 30t10 36l22 236q0 37 -26 63t-63 26l-236 -22q-19 -2 -36 -10t-30 -21zM775.5 592.5q-11.5 -11.5 -27.5 -11.5t-27.5 11.5t-11.5 27.5t11.5 27.5t27.5 11.5
t27.5 -11.5t11.5 -27.5t-11.5 -27.5zM459 578q29 29 69.5 29t69.5 -29l108 -108q29 -29 29 -69.5t-29 -69.5l-208 -208q-28 -28 -69 -28t-69 28l-109 109q-28 29 -28 69.5t28 69.5zM486 523l165 -165l-19 -19l-165 165zM396 433l165 -165l-20 -20l-165 165zM305 342
l165 -165l-20 -20l-165 165z" />
    <glyph glyph-name="pxreact2" unicode="&#xe601;" 
d="M593 384q0 -39 -25.5 -66.5t-62 -27.5t-62 27.5t-25.5 66.5t25.5 66.5t62 27.5t62 -27.5t25.5 -66.5zM815 546l-13 -41h-7l-7 7h-7l-6 7h-21l-6 7h-14l-13 6h-14l-13 7h-34l-13 7h-34l-14 7h-94v47h88l13 -7h41l6 -7h41l7 -7h20l13 -6h14l6 -7h21l6 -7h14l7 -7h6l7 -6v0z
M984 384h-41v13l-7 7v7l-13 13v7h-7v7l-7 7h-6v6h-7l-14 14h-6l-14 13h-7l-6 7h-7l-7 7h-7l-6 7h-14l-6 6l13 41h7l13 -7h7l7 -7h13l14 -13h6l14 -14h7l20 -20h7l20 -20v-7h7l6 -7v-6l7 -7v-7l7 -7v-13l7 -7v-20v0zM802 209l-7 40l7 7h6l14 7h7l13 13h7l7 7h13l27 27h7l7 7
v6h6l7 7v7h7v7l7 6v7h6v27h41v-34h-7v-13l-7 -7v-7l-13 -13v-7l-14 -13h-6v-7l-21 -20h-6l-14 -14l-13 -6h-7l-14 -14h-13l-14 -13h-13l-7 -7h-13v0zM505 162v47h108l13 7h34l14 6h33l7 7h14l13 7h14l6 7h14l7 6h13l7 -40l-7 -7h-7l-7 -7h-13l-13 -6h-14l-13 -7h-14l-7 -7
h-40l-7 -7h-54l-6 -6h-95zM209 209l13 40h7l7 -7h13l7 -6h20l7 -7h13l7 -7h27l14 -7h47l7 -6h107v-47h-101l-6 6h-54l-7 7h-27l-14 7h-13l-13 7h-14l-7 6h-20l-7 7h-6zM34 384h40v-27h7v-7l7 -6v-7h6v-7l21 -20h6v-7l7 -7h7l13 -13h7l7 -7h7l13 -13h14l6 -7h7l13 -7l-13 -40
h-13l-7 6h-14l-13 14h-7l-13 7l-7 6h-7l-20 21h-7l-27 27v6h-7l-13 14v7l-7 6v7l-7 7v13l-6 7v27v0zM195 546l14 -41l-7 -6h-7l-6 -7h-14l-7 -7h-6l-14 -13h-7l-6 -7h-7v-7l-7 -7h-7l-6 -6v-7h-7l-14 -14v-6l-6 -7v-7h-7v-20h-41v20l7 7v13l7 7v7l7 7v6h6l7 7v7l14 13h6v7
l14 13h7l13 14h7l7 7l13 6h7l13 14h14l7 7h6v0zM505 600v-48h-87l-14 -6h-40l-7 -7h-27l-13 -7h-27l-7 -7h-20l-7 -6h-7l-7 -7h-20l-7 -7h-6l-14 41l7 6h13l7 7h14l13 7h7l7 7h20l7 6h33l7 7h27l13 7h41l13 7h81v0zM532 768l27 -40h-7l-13 -14v-7l-47 -47v-13l-27 -27
l-7 -14l-13 -13v-14l-14 -13l-7 -14l-13 -13v-14l-7 -6l-7 -14l-6 -7l-7 -13v-7l-7 -13l-40 27l6 6l7 14l7 7l7 13l6 7v13l7 7l7 14l7 6l7 14l6 7l7 13l13 14v13l21 20l6 14l34 33l7 14l7 7v6l33 34v0zM748 849l-20 -41h-7l-7 7h-27l-7 -7h-13l-7 -6h-7l-6 -7h-7l-7 -7h-7
l-13 -13h-7l-47 -47l-27 40l27 27l13 7h7l20 20h7l14 13h6l7 7h7l7 7h6l7 7h27l7 6h20l7 -6h13l7 -7h7v0zM788 586l-40 7l7 13v41l6 7v74l-6 6v27h-7v21h-7v13h-7v7h-6v7l20 40v-7h7l13 -13v-7h7v-7l7 -7v-6l6 -7v-14l7 -13v-27l7 -13v-75l-7 -13v-47l-7 -7v0zM674 269
l-34 27l13 14v13l7 7l7 14v6l7 14l6 7v13l7 7l7 13v7l7 7v13l6 7v13l7 7v7l7 13v7l7 14v6l6 7v20l7 7v20l7 7v27l40 -7v-20l-6 -7v-20l-7 -13v-14l-7 -13v-7l-7 -14v-6l-6 -7v-14l-7 -6v-14l-7 -6v-14l-7 -7v-13l-6 -7l-7 -13v-7l-7 -14l-7 -6v-14l-6 -7l-7 -13v-7l-7 -13
l-7 -7l-6 -14v0zM492 0l-27 34l47 47v7l7 6l7 14l20 20v7l6 7l7 13l14 14l6 13v7l7 6l7 14l13 13l7 14v7l7 13l7 7l6 13v7l7 14l34 -27v-7l-7 -14l-7 -6l-6 -14l-7 -7v-13l-7 -7l-7 -13l-6 -7l-7 -13l-7 -7v-7l-7 -13l-13 -14l-7 -13l-20 -21v-13l-40 -41l-7 -13l-7 -7v-6
l-7 -7h-7l-6 -7v0zM269 -88l21 41h6l7 -7h27l7 7h13l7 7h14l6 6h7l7 7h7v7l6 7h7l14 6l40 41l27 -34l-7 -13l-13 -7l-21 -20h-6l-20 -21l-14 -6h-7l-6 -7h-7l-7 -7h-7l-6 -7h-7l-7 -6h-20l-7 -7h-27l-7 7h-13l-7 6h-7v0zM222 162l41 -14v-27l-7 -6v-88l7 -7v-27l6 -7v-13h7
v-7l14 -13l-21 -41l-26 27v7l-7 7v7l-7 6v14l-7 7v27l-6 13v88l6 13v34v0zM337 492l40 -27l-7 -7l-6 -13l-7 -7v-14l-7 -6l-7 -14v-13l-6 -7l-7 -14v-6l-7 -14l-7 -7v-13l-6 -7v-13l-7 -7v-13l-7 -7v-14l-7 -6v-14l-6 -7v-20l-7 -7v-20l-7 -7v-20l-7 -7v-13l-40 13l7 7v27
l7 14v20l6 7v13l7 7v13l7 7v14l7 6v14l6 6v14l7 7v13l7 14v6l7 14l6 7v13l7 7l14 27v7l13 26l7 7v14v0zM222 593l41 13l6 -6v-27l7 -14v-13l7 -14v-7l7 -13v-14l6 -13v-7l7 -13v-7l7 -13v-7l7 -14l6 -6v-14l7 -7v-13l7 -7l7 -13v-7l6 -14l7 -6v-14l7 -7l7 -13l7 -7l-34 -27
l-7 14l-7 7l-6 13l-7 7v13l-7 14l-7 6v14l-6 7l-7 13v7l-14 27v7l-6 13v7l-7 13v7l-7 14v6l-7 14v6l-6 14v20l-7 7v20l-7 7v20l-7 7v0zM269 849l21 -41v-6h-7v-7h-7v-7l-7 -7v-13h-6v-27l-7 -7v-81l7 -6v-41l-41 -13v47l-6 7v94l6 7v27l7 6v14l7 7v6l13 14v7l20 20v0z
M269 849v0v0zM492 755l-27 -34l-54 54h-7l-13 13h-7l-7 7h-7l-6 7h-14l-7 6h-20v7h-13l-7 -7h-13l-21 41h14v7h67l7 -7h7l6 -7h7l7 -7h7l6 -6h14l20 -21h7l13 -13l14 -7l20 -20l7 -14v1zM674 492l-34 -27l-7 13v7l-7 14l-13 13v13l-7 7l-6 14l-14 13v14l-20 20l-7 13v7
l-27 27l-7 14v6l-40 41v6l-7 7h-7l-6 7l27 34l6 -7h7l27 -27v-14l41 -40l6 -13v-7l14 -14l6 -13l14 -14l7 -13v-7l6 -7l7 -13l14 -14v-13l6 -7l7 -13l7 -7l7 -13v-7v0zM640 465v0v0v0zM795 168l-40 -6v6l-7 14v13l-7 7v20l-7 14v13l-6 14v7l-7 6v14l-7 6v14l-7 7v13l-13 14
v13l-7 7v13l-7 7l-6 14v6l-7 14l-7 7l-7 13v7l-6 13l-7 7l33 27l7 -14l7 -6l7 -14v-7l6 -13l7 -7l7 -13v-14l7 -6l6 -14v-7l7 -13l7 -7v-13l7 -7v-14l6 -6v-14l7 -7v-13l7 -7v-13l7 -7v-20l7 -7v-13l6 -7v-27l7 -14v0zM748 -88l-20 41v7h6v6h7v7l7 7v7l7 6v27l6 7v94l-6 7
v34l40 7v-34l7 -7v-108l-7 -6v-27l-7 -7v-14l-7 -6v-7l-6 -7v-7l-27 -27v0zM748 -88v0v0zM539 -7l27 34l47 -47h7l7 -7h6l7 -7h7l7 -6h6v-7h21l6 -7h34v7h7l20 -41h-7l-7 -6h-13l-7 -7h-27l-6 7h-21l-6 6h-14l-7 7h-6l-7 7h-7l-13 13h-7l-54 54v0zM344 269l33 27l7 -13v-14
l7 -6l7 -14l13 -13v-14l7 -6l7 -14l6 -7l7 -13l13 -14l7 -13v-7l14 -13l6 -14l34 -33v-7l54 -54l-27 -34l-74 74l-7 14l-13 13v7l-7 13l-13 14l-7 13l-14 14l-6 13l-7 7l-7 14l-7 6v14l-6 7l-7 13l-7 7l-13 27v6z" />
    <glyph glyph-name="iconcalc" unicode="&#xe61a;" 
d="M513 896q-104 0 -199 -40.5t-163.5 -109t-109 -163t-40.5 -198.5t40.5 -199t109 -163.5t163.5 -109t199 -40.5t198.5 40.5t163 109t109 163.5t40.5 199t-40.5 198.5t-109 163t-163 109t-198.5 40.5v0zM513 -80q-95 0 -181 36.5t-148.5 99t-99 148.5t-36.5 180.5
t36.5 180.5t99 148.5t148.5 99.5t180.5 37t180.5 -37t148.5 -99.5t99.5 -148.5t37 -180.5t-37 -180.5t-99.5 -148.5t-148.5 -99t-180 -36.5v0zM513 -80zM342 492h48v-51q0 -6 4 -10t9.5 -4t9.5 4t4 10v51h48q6 0 10 4t4 9.5t-4 9.5t-10 4h-48v45q0 6 -4 9.5t-9.5 3.5
t-9.5 -3.5t-4 -9.5v-45h-48q-6 0 -9.5 -4t-3.5 -9.5t3.5 -9.5t9.5 -4v0zM342 492zM741 632h-1h-443h-1q-10 -1 -17 -8.5t-7 -18.5v-441q0 -11 7.5 -18.5t18.5 -7.5h442q10 0 17.5 7.5t7.5 18.5v441q0 11 -7 18.5t-17 8.5v0zM733 403h-198v196h198v-196v0zM502 599v-196h-197
v196h197v0zM305 370h197v-200h-197v200v0zM535 170v200h198v-200h-198v0zM535 170zM572 492h123q6 0 10 4t4 9.5t-4 9.5t-10 4h-123q-6 0 -10 -4t-4 -9.5t4 -9.5t10 -4v0zM572 492zM458 235l-37 36l34 34q10 10 0.5 19.5t-19.5 -0.5l-34 -34l-32 32q-9 10 -18.5 0.5
t0.5 -19.5l32 -32l-35 -34q-9 -9 0.5 -18.5t18.5 -0.5l34 34l37 -36q9 -9 18.5 0.5t0.5 18.5v0zM458 235zM695 320h-123q-6 0 -10 -4t-4 -9.5t4 -9.5t10 -4h123q6 0 10 4t4 9.5t-4 9.5t-10 4v0zM695 320zM695 247h-123q-6 0 -10 -3.5t-4 -9t4 -9.5t10 -4h123q6 0 10 4t4 9.5
t-4 9t-10 3.5v0zM695 247z" />
    <glyph glyph-name="navtodolist" unicode="&#xe794;" 
d="M3 449h135v135h-135v-135zM3 719h135v135h-135v-135zM3 179h135v135h-135v-135zM273 584h748v-135h-748v135zM273 314h748v-135h-748v135zM1021 855l-748 -1v-135h748v136zM3 -87h135v136h-135v-136zM273 49h748v-136h-748v136z" />
    <glyph glyph-name="layout" unicode="&#xe649;" 
d="M958 840h-892q-27 0 -46.5 -22.5t-19.5 -55.5v-764q0 -32 19.5 -54.5t46.5 -22.5h892q27 0 46.5 22.5t19.5 54.5v764q0 33 -19.5 55.5t-46.5 22.5zM866 748h40v-46h-40v46zM788 748h39v-46h-39v46zM709 748h39v-46h-39v46zM630 13h-591v138h591v-138zM630 197h-591v413
h591v-413zM985 13h-315v597h315v-597z" />
    <glyph glyph-name="component" unicode="&#xe6de;" 
d="M827 426q-51 0 -90 -36v105q0 47 -33 80t-80 34v0h-104q35 38 35 90q0 55 -39.5 94t-94.5 39t-94 -39t-39 -94q0 -51 35 -90h-148v-1q-46 0 -78.5 -33t-32.5 -80v0l1 -116q-3 -23 6 -43.5t30 -27.5q34 -13 61 25q20 29 56 29q29 0 49.5 -20.5t20.5 -49t-20.5 -49
t-49.5 -20.5q-36 0 -57 31q-25 35 -59 23q-20 -8 -29.5 -27.5t-8.5 -40.5v-160v0q0 -47 33 -80t80 -33h446q47 0 80.5 33t33.5 80v145q38 -35 90 -35q55 0 94 39t39 94.5t-39 94.5t-94 39zM827 223q-37 0 -58 31q-25 35 -58 23q-21 -8 -30 -27.5t-8 -40.5v-160
q0 -20 -14.5 -34.5t-35.5 -14.5h-446q-20 0 -34.5 14.5t-14.5 34.5v0v145q39 -35 90 -35q56 0 95 39t39 94.5t-39.5 94.5t-94.5 39q-50 0 -90 -35v104v0q0 21 14.5 35.5t34.5 14.5v0h158q6 -1 11 -1q47 0 60 38q12 34 -25 60q-29 21 -29 57q0 29 20 49t49 20t49.5 -20
t20.5 -49q0 -36 -31 -58q-35 -24 -23 -58q7 -21 26.5 -30t40.5 -8h119v0q21 0 35.5 -14.5t14.5 -35.5v-116q-3 -23 6 -43.5t30 -28.5q34 -12 61 26q21 29 57 29q28 0 48.5 -20.5t20.5 -49t-20.5 -49t-48.5 -20.5z" />
    <glyph glyph-name="linkedin" unicode="&#xe612;" 
d="M985 606q-49 196 -240 247q-78 21 -176 25q-158 5 -267 -20q-125 -29 -192 -109q-51 -63 -73 -162q-23 -107 -17 -260q4 -104 26 -183q50 -173 221 -225q67 -20 147 -26q172 -12 301 15q215 44 268 246q24 92 25 227q-1 135 -23 225zM402 189h-90q1 100 4 338
q3 1 42.5 1.5t48.5 -0.5q-1 -65 -2.5 -185.5t-2.5 -153.5zM358 550.5q-24 -0.5 -40.5 16.5t-16.5 41.5t16.5 41.5t40.5 17t41 -17t17 -41t-17 -41t-41 -17.5zM727 189h-91v5q0 155 1 186q0 17 -14 32q-5 6 -17 7q-15 1 -26 -3q-1 0 -31 -10q-5 -1 -5 -6v-54v-55
q-1 -21 -1 -97v-3t-1 -2h-89q-1 3 -0.5 168t1.5 171h90v-30l4 1q37 15 76 11q46 -5 75 -41q28 -36 28 -82v-192v-6z" />
    <glyph glyph-name="icon" unicode="&#xe605;" 
d="M415 548h-16q-3 0 -3 -4v-45v-136q0 -18 -7 -34q-6 -15 -23 -17t-27 9q-7 7 -7 20v223q0 28 3 40q7 36 38 50q11 5 32 9q21 5 59 5h51.5h57.5q39 -1 64 -9q18 -6 34 -21q18 -16 21 -50q2 -18 2 -49v-190q0 -13 -5 -23q-6 -11 -20 -14q-16 -3 -27.5 9.5t-11.5 28.5v174v25
h-23v-6q-1 -350 -1 -395v-165q0 -11 -1 -14q-1 -10 -14 -19q-21 -15 -47 -6q-8 3 -14.5 12t-6.5 19q0 38 -0.5 107.5t-0.5 91.5v130v9h-17q-1 0 -2 -2v-3v-223v-35v-41q0 -28 -7 -50q-3 -9 -10 -12q-22 -11 -43 -4q-26 8 -26 36q-1 426 -1 453v112zM515 683q-39 -1 -62 31
q-25 34 -3 73q16 30 49.5 36.5t58.5 -12.5q28 -21 32 -50q2 -9 0 -17q-7 -31 -25 -45q-24 -17 -50 -16z" />
    <glyph glyph-name="update" unicode="&#xe60b;" 
d="M512 -62q-140 0 -255 79q-8 6 -9.5 15t4 16.5t14.5 9t16 -3.5q120 -82 265 -69.5t249 113.5q103 102 116 244.5t-71 259.5q-6 7 -4 16.5t9 14.5t16.5 3.5t14.5 -8.5q93 -131 79 -289.5t-129 -271.5q-64 -63 -146 -96t-169 -33v0zM512 -62zM165 131q-11 0 -18 9
q-93 131 -79 290t129 272t276.5 127t294.5 -78q7 -5 9 -14t-3.5 -16.5t-14.5 -9.5t-17 3q-119 83 -264.5 70.5t-249.5 -114.5q-103 -102 -115.5 -244.5t70.5 -259.5q6 -8 4.5 -17t-9.5 -14q-6 -4 -13 -4v0zM165 131zM674 703q-9 0 -15.5 6.5t-6.5 15.5t6.5 15.5t15.5 6.5
l58 1l-21 51q-3 8 0.5 16.5t12 12t17 0t11.5 -12.5l33 -81q5 -11 -1.5 -21t-18.5 -10h-91v0v0zM674 703zM283 -53q-15 0 -20 14l-34 84q-4 10 2.5 20t18.5 10v0h89q10 0 16.5 -6.5t6.5 -16t-7 -16.5t-16 -6l-56 1l21 -53q3 -9 -0.5 -17.5t-12.5 -11.5q-3 -2 -8 -2v0z
M283 -53zM624 251h-222q-10 0 -16.5 6.5t-6.5 15.5v88q0 9 6.5 15.5t16 6.5t16 -6.5t6.5 -15.5v-66h178v156q0 9 6.5 15.5t15.5 6.5h42l-154 167l-154 -168h46q10 0 16.5 -6.5t6.5 -15.5t-6.5 -15.5t-16.5 -6.5h-96q-15 0 -20.5 13t3.5 24l205 223q6 7 16 7v0q10 0 16 -7
l205 -222q9 -11 3.5 -24.5t-20.5 -13.5h-70v-155q0 -9 -6.5 -15.5t-15.5 -6.5v0zM624 251zM623 158h-222q-10 0 -16.5 6.5t-6.5 16t6.5 16t16.5 6.5h222q10 0 16.5 -6.5t6.5 -16t-6.5 -16t-16.5 -6.5v0zM623 158zM579 71h-134q-9 0 -15.5 6.5t-6.5 16t6.5 16t15.5 6.5h134
q9 0 15.5 -6.5t6.5 -16t-6.5 -16t-15.5 -6.5v0zM579 71z" />
    <glyph glyph-name="create" unicode="&#xe633;" 
d="M881 334h-314v-314q0 -22 -16 -38.5t-39 -16.5t-39 16.5t-16 38.5v314h-314q-23 0 -39 16t-16 39t16 39.5t39 16.5h314v313q0 23 16 39t39 16t39 -16t16 -39v-313h314q23 0 39 -16.5t16 -39.5t-16 -39t-39 -16z" />
    <glyph glyph-name="car" unicode="&#xe616;" horiz-adv-x="2048" 
d="M75 48h-21q-22 0 -38 15.5t-16 37.5v224q0 22 16 38t38 16h21q24 0 49 -16.5t25 -37.5v-224q0 -20 -25 -36.5t-49 -16.5zM62 109h67v209h-67v-209zM1982 0h-15q-24 0 -44 16t-26 40q-15 51 -57 83t-95 32q-44 0 -81 -22.5t-58 -60.5q-15 -29 -40 -29t-41 29
q-20 38 -57.5 60.5t-81.5 22.5q-52 0 -94.5 -32t-56.5 -83q-7 -24 -27 -40t-43 -16h-589q-24 0 -44 16t-27 40q-14 51 -56 83t-95 32t-95 -32t-57 -83q-7 -27 -26.5 -45t-39.5 -11t-27.5 18.5t-7.5 38.5l-47 52h89v209h-89l20 40q0 20 5 59l11 55l2 6l36 166q4 20 21 33.5
t37 13.5h349q15 0 27 -7v106q0 27 19 46t46 19h1355q27 0 46 -19t19 -46v-725q0 -27 -19 -46t-46 -19zM548 416v214h-361l-47 -220l-3 -27q20 -4 33.5 -20.5t13.5 -37.5v-174q31 38 75.5 59.5t94.5 21.5q73 0 132 -44.5t78 -115.5q2 -4 5.5 -7.5t6.5 -3.5h589q3 0 6.5 3.5
t4.5 7.5q20 71 78.5 115.5t131.5 44.5q54 0 101.5 -24.5t78.5 -68.5q30 44 77.5 68.5t101.5 24.5q73 0 132 -44.5t78 -115.5q2 -4 5.5 -7.5t6.5 -3.5h15q4 0 4 4v725q0 4 -4 4h-1355q-4 0 -4 -4v-363q0 -21 -6 -35.5t-16 -20t-17 -7.5t-14 -2h-22v54zM556 640h-289
q-28 0 -40 22q-13 21 0 45q49 88 138 137q92 50 190 52q22 0 38 -15q17 -16 17 -39v-148q0 -22 -16 -38t-38 -16zM296 692h252v143q-79 -4 -153 -45q-49 -26 -99 -98zM1952 289h-1376q-9 0 -9 8.5t9 8.5h1376q9 0 9 -8.5t-9 -8.5zM323 651h-133q-9 0 -16.5 -6t-9.5 -14v-18
l137 -1l-1 -163h-171v16l-9 -38q-1 -9 3.5 -15t13.5 -6h186q9 0 15 6.5t6 15.5v202q0 9 -6 15t-15 6zM354 144q-56 0 -96 -40t-40 -96t40 -96t96 -40t96 40t40 96t-40 96t-96 40zM354 -83q-38 0 -64.5 26.5t-26.5 64.5t26.5 64.5t64.5 26.5t64.5 -26.5t26.5 -64.5
t-26.5 -64.5t-64.5 -26.5zM1386.5 144q-56.5 0 -96 -40t-39.5 -96t39.5 -96t96 -40t96.5 40t40 96t-40 96t-96.5 40zM1386.5 -83q-37.5 0 -64 26.5t-26.5 64.5t26.5 64.5t64 26.5t64.5 -26.5t27 -64.5t-27 -64.5t-64.5 -26.5zM1746.5 144q-56.5 0 -96 -40t-39.5 -96
t39.5 -96t96 -40t96.5 40t40 96t-40 96t-96.5 40zM1746.5 -83q-37.5 0 -64 26.5t-26.5 64.5t26.5 64.5t64 26.5t64.5 -26.5t27 -64.5t-27 -64.5t-64.5 -26.5z" />
    <glyph glyph-name="contact" unicode="&#xe604;" 
d="M904 726h-784q-23 0 -39.5 -16.5t-16.5 -40.5v-570q0 -24 16.5 -40.5t39.5 -16.5h784q23 0 39.5 16.5t16.5 40.5v570q0 24 -16.5 40.5t-39.5 16.5zM382 325l130 -90l129 91l223 -227h-704l222 226v0zM120 139v368l215 -149zM688 359l216 151v-371zM904 669v-92l-1 2
l-391 -274l-392 271v93h784z" />
    <glyph glyph-name="javascript" unicode="&#xe608;" 
d="M128 896q-53 0 -90.5 -37.5t-37.5 -90.5v-768q0 -53 37.5 -90.5t90.5 -37.5h768q53 0 90.5 37.5t37.5 90.5v768q0 53 -37.5 90.5t-90.5 37.5h-768zM288 846h98v-670q0 -131 -50 -190q-49 -59 -159 -59h-37v82h31q64 0 90.5 36.5t26.5 130.5v670zM756 593q45 0 91.5 -8
t95.5 -24v-85q-49 24 -93 35.5t-84 11.5q-71 0 -109 -27q-39 -28 -39 -78q0 -43 26 -64q25 -22 96 -35l53 -11q96 -18 142 -65q46 -46 46 -124q0 -93 -62 -141t-182 -48q-46 0 -97 11q-51 10 -106 30v89q53 -29 103.5 -44t99.5 -15q73 0 113.5 29t40.5 83q0 47 -29 73
q-29 27 -95 40l-52 10q-97 20 -140 61t-43 114q0 85 59 133q60 49 165 49z" />
    <glyph glyph-name="npm" unicode="&#xe68a;" 
d="M1024 599v-368h-512v-62h-228v62l-284 -1v369h1024v0zM564 290v249h-229v-309h112v60h117v0zM622 539v-249h114v184h57v-184h58v186h55v-186h60v249h-344zM279 290v249h-229v-249l113 1v185h59v-186h57zM504 475v-121h-55v121h55z" />
    <glyph glyph-name="web" unicode="&#xe629;" 
d="M928 858h-834q-24 0 -40 -15.5t-16 -39.5v-834q0 -22 21.5 -34.5t49.5 -12.5h819q46 0 46 47v820q0 27 -12 48t-34 21zM915 800v-117h-819v117h819zM96 -19v672h819v-672h-819zM146 727h30q6 0 10 4t4 10t-4 10.5t-10 4.5h-30q-6 0 -10 -4.5t-4 -10.5t4 -10t10 -4z
M234 727h29q6 0 10.5 4t4.5 10t-4.5 10.5t-10.5 4.5h-29q-6 0 -10.5 -4.5t-4.5 -10.5t4.5 -10t10.5 -4zM322 727h29q6 0 10.5 4t4.5 10t-4.5 10.5t-10.5 4.5h-29q-6 0 -10.5 -4.5t-4.5 -10.5t4.5 -10t10.5 -4zM389 580q0 6 -4.5 10.5t-10.5 4.5h-205q-6 0 -10 -4.5t-4 -10.5
v-380q0 -6 4 -10.5t10 -4.5h205q6 0 10.5 4.5t4.5 10.5v380zM360 253l-69 127l69 127v-254zM352 215h-153l77 142zM276 415l-81 151h162zM260 380l-76 -141v282zM872 580q0 6 -4.5 10.5t-10.5 4.5h-410q-6 0 -10 -4.5t-4 -10.5v-380q0 -6 4 -10.5t10 -4.5h410q6 0 10.5 4.5
t4.5 10.5v380zM462 547l176 -166l-176 -163v329zM490 566h340l-172 -160zM658 367l162 -152h-327zM679 381l163 151v-306zM872 127q0 6 -4.5 10t-10.5 4h-688q-6 0 -10 -4t-4 -10v-103q0 -6 4 -10t10 -4h688q6 0 10.5 4t4.5 10v103zM842 39h-658v73h658v-73z" />
    <glyph glyph-name="flexbianjiqi" unicode="&#xe65c;" 
d="M146 896h73v-805h-73v805zM146 896h439v-73h-439v73zM146 603h293v-73h-293v73zM824 89l-362 362l52 52l362 -362zM461 140l362 362l52 -52l-362 -362zM0 18h73v-146h-73v146zM146 18h659v-146h-659v146zM878 -128v146l146 -73z" />
    <glyph glyph-name="pc" unicode="&#xe62d;" horiz-adv-x="1332" 
d="M1266 65h-1201q-27 0 -46 19t-19 46v701q0 27 19 46t46 19h1201q27 0 46 -19t19 -46v-701q0 -27 -19 -46t-46 -19zM1251 815h-1171v-674h1171v674v0zM423 -79q24 0 43.5 6.5t30.5 17t19 23t11 25t4.5 23t1.5 16.5l-1 7l110 -1v1h155q2 -1 0 -12t3.5 -29t14 -35
t30.5 -29.5t53 -12.5q17 0 24.5 -12t1 -24.5t-24.5 -12.5h-199h-58h-220q-19 0 -26.5 12.5t1 24.5t26.5 12z" />
    <glyph glyph-name="workflowsetting" unicode="&#xe642;" horiz-adv-x="1059" 
d="M653 150h-93v497h93v-124q0 -26 18 -44t44 -18h218q25 0 43.5 18t18.5 44v311q0 25 -18 43.5t-44 18.5h-218q-26 0 -44 -18.5t-18 -43.5v-125h-156v-46v-233h-124v186q0 26 -18.5 44t-43.5 18h-249q-25 0 -43.5 -18t-18.5 -44v-435q0 -26 18.5 -44t43.5 -18h249
q25 0 43.5 18t18.5 44v186h124v-217v-62h63h93v62zM1058 50q1 -7 -0.5 -15.5t-5.5 -18t-9 -17t-11.5 -10.5t-11 -3t-10.5 2q-5 2 -13 3t-16 0.5t-16 -3t-14 -9.5q-13 -13 -15 -29.5t5 -31.5q5 -11 -2 -21q-3 -5 -10 -9q-6 -4 -14.5 -8t-17 -6t-15.5 -2q-5 0 -9 3.5t-6 8.5v0
q-6 16 -20 27.5t-32 11.5t-32.5 -11.5t-20.5 -27.5q-2 -6 -7.5 -9t-11.5 -3q-8 0 -17 3q-9 2 -18 6t-16.5 9.5t-10.5 10.5q-3 3 -3.5 8t4.5 14q5 12 4 27.5t-13 28.5q-8 8 -18.5 10.5t-19.5 1.5q-11 0 -23 -4q-7 -2 -14 1q-6 2 -11 9.5t-9 17t-6 19t-1 16.5q2 11 11 14
q15 7 27.5 21t12.5 32q0 19 -12.5 32.5t-27.5 19.5q-5 2 -8 8t-3 12q0 7 2 15.5t5.5 16t8 14t9.5 9.5q4 3 8 2.5t9 -2.5q15 -6 32 -3.5t30 14.5q7 7 9.5 16t3.5 18t0 16.5t-1 10.5q-1 3 -2 7t1 7q3 8 11 13.5t18 8.5q9 4 18 6t14 2q7 0 11 -4.5t5 -9.5q6 -14 19 -25t31 -11
t32.5 10.5t19.5 26.5q3 4 7 8.5t9 4.5q7 0 16 -2.5t17.5 -6t15.5 -9t11 -12.5q3 -4 1.5 -9t-2.5 -7q-6 -16 -3.5 -32.5t15 -29t31 -14t33.5 5.5q5 3 11 2.5t10 -4.5q8 -8 14 -22.5t8 -30.5q1 -9 -3 -13.5t-8 -6.5q-16 -6 -28 -20.5t-12 -32.5t10 -31t26 -19l6 -4q6 -5 8 -12
zM814 2q24 0 45 9t36.5 25t24 36.5t8.5 44t-8.5 44.5t-24 36t-36.5 24t-44.5 9t-44.5 -8.5t-36.5 -24t-24.5 -36.5t-9 -44.5t9 -44t24.5 -36.5t36.5 -25t44 -9v0z" />
    <glyph glyph-name="editor" unicode="&#xe61e;" 
d="M1015 648l-86 -82l-246 239l86 83q52 15 105.5 2t92 -50.5t51.5 -89t-3 -102.5zM394 43l-394 -143l146 382l478 467l248 -239zM1018 -55v-73h-886l230 73h656z" />
    <glyph glyph-name="svg1160608easyiconnet" unicode="&#xe600;" 
d="M832 498h-20v96v2q-1 6 -4 11l-160 182v0q-2 2 -4 3l-1 1t-3 1h-0.5h-0.5q-2 1 -3 1h-393q-14 0 -23.5 -9.5t-9.5 -23.5v-264h-20q-19 0 -32.5 -13.5t-13.5 -32.5v-242q0 -19 13.5 -32.5t32.5 -13.5h20v-166q0 -13 9.5 -22.5t23.5 -9.5h536q14 0 23.5 9.5t9.5 22.5v166
h20q19 0 32.5 13.5t13.5 32.5v242q0 19 -13.5 32.5t-32.5 13.5zM243 762h376v-166q0 -7 5 -11.5t12 -4.5h143v-82h-536v264zM607 455l-82 -242h-64l-78 242h60l30 -102q15 -53 21 -87h1q9 41 22 86l31 103h59v0zM200 224l11 45q29 -15 61 -15q38 0 38 26q0 11 -9 18.5
t-32 15.5q-66 24 -66 72q0 32 25 52.5t67 20.5q34 0 62 -12l-13 -44q-24 11 -50 11q-17 0 -26.5 -6.5t-9.5 -16.5q0 -11 10 -18t35 -16q63 -24 63 -73q0 -32 -25 -53.5t-73 -21.5q-42 0 -68 15zM779 7h-536v157h536v-157zM832 224q-40 -14 -81 -14q-64 0 -98 33
q-35 32 -35 88q1 59 39.5 93t99.5 34q43 0 67 -12l-11 -44q-24 10 -57 10q-35 0 -57.5 -20t-22.5 -58q0 -37 21 -58.5t55 -21.5q20 0 27 4v51h-37v43h90v-128z" />
    <glyph glyph-name="weibiaoti15" unicode="&#xe614;" 
d="M1004 605q-3 3 -27.5 27t-36.5 38q-20 22 -23 43q-1 2 0.5 10t1 20t-6.5 26q-24 57 -66 99q36 -152 -17 -280v0q-9 -25 -21 -49q-17 -32 -44.5 -63.5t-57 -55t-62 -49.5t-60.5 -48.5t-50.5 -50.5t-35 -57t-10.5 -66.5t20 -80.5q77 31 141 -1q8 -4 167 -112
q124 -85 124 -72q0 1 -2 4q-10 18 -31.5 36.5t-58 49t-70.5 65.5q-38 40 -53.5 72.5t-14.5 51t12 39.5q0 2 13.5 30.5t19.5 41t17.5 32t19.5 30.5q11 13 28 17t49 4.5t53 4.5q22 3 33.5 12.5t12.5 21t-1 20.5t-6 14q-5 8 -3.5 12.5t10.5 10.5q15 10 0 32q15 8 16.5 15
t-4.5 15.5t-7 12.5q-1 16 31 33q9 5 10.5 14t-2 17t-8.5 14zM947 735q-1 -2 -4 -5t-13.5 -8t-21.5 1q-5 -7 -4 -11t5 -5l3 -1q17 -1 35 29zM836 807q12 -112 -21 -195t-119 -150q-35 -27 -86.5 -59t-88 -54t-79 -59t-72.5 -79q-33 -47 -30.5 -94t26.5 -85t66 -63t88 -27
q-106 12 -162 78t-30 161q9 31 28.5 61t41.5 52t53.5 46t54.5 38.5t56 34.5t47 29q36 24 57 39t48 37t42.5 41t32.5 45.5t26 55t15 65.5t6 82zM814 851q-20 -110 -74 -181t-155 -111q-46 -18 -125.5 -39t-141.5 -45.5t-114 -66.5q-42 -34 -54.5 -81t1.5 -90t47 -78.5
t77 -50.5q-99 41 -134 118.5t15 164.5q17 28 44 51t53.5 38.5t63.5 29.5t63.5 21.5t63 17.5t52.5 15q41 13 65.5 21.5t56.5 22.5t52 27.5t43.5 34.5t39.5 46t32 59t29 76zM779 893q-48 -95 -116 -143t-170 -56q-47 -3 -99 -2t-95.5 3t-94.5 -5t-96 -25q-48 -19 -72 -58
t-23 -81.5t21 -84t56 -66.5q-78 64 -88.5 144t58.5 144q27 24 62 38.5t78.5 19.5t74 5.5t78 -1t61.5 -1.5q47 -1 75 0.5t65 6.5t62 16t54.5 29.5t56 47.5t52.5 69v0z" />
    <glyph glyph-name="iconfontjingdongcopy" unicode="&#xe678;" horiz-adv-x="1031" 
d="M675 -20h-140h-93v93v605v93h93h140q95 0 175.5 -53t127 -144t46.5 -198.5t-46.5 -198.5t-127 -144t-175.5 -53v0zM675 678h-140v-605h140q106 0 181 88.5t75 214t-75 214t-181 88.5v0zM47 -20h-47v93h47q77 0 131.5 54.5t54.5 131.5v512h93v-512q0 -115 -82 -197
t-197 -82v0z" />
    <glyph glyph-name="circle" unicode="&#xe613;" horiz-adv-x="1037" 
d="M386 265.5q0 -86.5 61 -147.5t147 -61t147 61t61 147.5t-61 147.5t-147 61t-147 -61t-61 -147.5zM24 523q0 -69 48.5 -117t117 -48t117 48t48.5 117v0q0 68 -48.5 116.5t-117 48.5t-117 -48.5t-48.5 -116.5v0zM780 609q0 -45 31.5 -77t76.5 -32t76.5 32t31.5 77
t-31.5 76.5t-76.5 31.5t-76.5 -31.5t-31.5 -76.5zM312 428zM724 428z" />
    <glyph glyph-name="group15" unicode="&#xe643;" 
d="M382 347v103q0 21 17 36t41 15v51q-48 0 -81.5 -30t-33.5 -72v-77q0 -11 -8.5 -18.5t-19.5 -7.5h-29v-51h29q11 0 19.5 -7.5t8.5 -17.5v-77q0 -42 33.5 -72.5t81.5 -30.5v52q-24 0 -41 15t-17 36v102q0 11 -8 18.5t-20 7.5q12 0 20 7.5t8 17.5v0v0zM611 296v-102
q0 -21 -17 -36t-40 -15v-52q47 0 80.5 30.5t33.5 72.5v76q0 11 8.5 18.5t20.5 7.5h29v51h-29q-12 0 -20.5 7.5t-8.5 18.5v77q0 42 -33.5 72t-80.5 30v-51q23 0 40 -15t17 -36v-103q0 -10 8.5 -17.5t20.5 -7.5q-12 0 -20.5 -7.5t-8.5 -18.5v0v0zM96 831l64 64v-1023l-64 64
h801l-64 -64v801l64 -64h-217h-64v64v222l64 -64h-584zM680 895v-222h217v-801h-801v1023h584zM822 673h75l-219 223v-80z" />
    <glyph glyph-name="plane" unicode="&#xe618;" horiz-adv-x="2600" 
d="M702 123l-304 153q-67 36 -112.5 35t-146.5 -38l-139 -51l263 -261zM2412 696l-570 -210l-719 375q-9 4 -25 11t-21 9.5t-16.5 7t-15 5t-12 2t-12.5 0.5t-12.5 -2.5t-15.5 -4t-18 -6.5l-256 -94q-41 -15 -41 -35t57 -81q9 -10 30 -32q22 -23 34 -36l360 -370l-905 -333
q58 -8 208 -18.5t324 -10.5t230 21l1494 549q53 20 76.5 71t3.5 103.5t-72.5 75.5t-105.5 3v0z" />
    <glyph glyph-name="skill" unicode="&#xe622;" horiz-adv-x="1458" 
d="M1201 48l-192 192l26 27l-34 34l-79 -79l-123 123l151 151q31 -10 64 -10q83 0 141 59q44 43 55.5 103t-13.5 117l-14 33l-88 -89l-60 -1l1 57l90 91l-33 14q-38 16 -79 16q-83 0 -141 -58q-42 -42 -54 -98q-12 -55 6 -108l-151 -151l-215 215l26 26l-151 152l-87 -86
l152 -152l26 26l215 -215l-151 -151q-31 10 -64 10q-83 0 -141 -58q-44 -44 -55.5 -104t13.5 -117l14 -33l90 90l57 1l-1 -60l-89 -89l33 -14q38 -16 79 -16q83 0 141 59q42 41 54 97q12 55 -6 108l151 151l123 -123l-78 -79l34 -34l26 26l192 -192q29 -29 69.5 -29
t69.5 28.5t29 69.5t-29 70zM1131.5 -72q-20.5 0 -35.5 15l-192 192l71 71l192 -192q15 -15 15 -36t-15 -35.5t-35.5 -14.5zM564 156q19 -43 10.5 -88.5t-42.5 -78.5q-44 -45 -107 -45q-12 0 -24 2l49 49l2 129l-126 -2l-51 -50q-12 76 43 132q44 44 107 44q31 0 60 -12
l15 -7l381 382l-6 15q-19 43 -10.5 88.5t42.5 79.5q44 44 107 44q12 0 24 -2l-50 -50l-2 -126l129 1l49 49q12 -76 -43 -131q-44 -45 -107 -45q-31 0 -60 13l-15 6l-381 -382zM334 796l83 -84l-18 -18l-84 84z" />
    <glyph glyph-name="seo-marketing-business-responsive-adaptive-design" unicode="&#xe610;" 
d="M416 752zM384 752q0 -13 9.5 -22.5t22.5 -9.5t22.5 9.5t9.5 22.5t-9.5 22.5t-22.5 9.5t-22.5 -9.5t-9.5 -22.5zM288 752zM256 752q0 -13 9.5 -22.5t22.5 -9.5t22.5 9.5t9.5 22.5t-9.5 22.5t-22.5 9.5t-22.5 -9.5t-9.5 -22.5zM160 752zM128 752q0 -13 9.5 -22.5t22.5 -9.5
t22.5 9.5t9.5 22.5t-9.5 22.5t-22.5 9.5t-22.5 -9.5t-9.5 -22.5zM928 592h-96v192q0 26 -19 45t-45 19h-640q-26 0 -45 -19t-19 -45v-576q0 -26 19 -45t45 -19h384v-192q0 -13 9.5 -22.5t22.5 -9.5h384q13 0 22.5 9.5t9.5 22.5v608q0 13 -9.5 22.5t-22.5 9.5zM96 784
q0 14 9 23t23 9h640q14 0 23 -9t9 -23v-96h-704v96zM512 400h-320v160h320v-160zM160 592v-224h352v-64h-352v-32h352v-96h-384q-14 0 -23 9t-9 23v448h704v-64h-640zM928 112v-160h-384v608h384v-448zM864 496h-256v-192h256v192zM832 336h-192v128h192v-128zM608 240h256
v-32h-256v32zM608 144h256v-32h-256v32zM704 48h64v-64h-64v64zM341 101l69 -69h-154q-33 0 -56.5 23.5t-23.5 56.5h-32q0 -46 33 -79t79 -33h153l-68 -69l22 -22l108 107l-108 107z" />
    <glyph glyph-name="logograph" unicode="&#xe607;" horiz-adv-x="1336" 
d="M1024 892q-54 11 -89 -30q-115 -180 -225 -195q-4 -1 -3.5 -4t4.5 -4q19 -6 38 -7q43 -4 93 9q60 16 118.5 47t89.5 74q17 23 19 34q3 9 3 18q0 21 -14 37.5t-34 20.5zM1292 102h-6h-5q-10 -1 -22 -1q-76 0 -146.5 21t-115.5 64q-4 4 -7.5 8t-7.5 10.5t-2.5 22t18.5 27.5
q12 6 28.5 17.5t26.5 19.5l10 9q36 31 62 66q30 38 50.5 88t26.5 84q16 101 -3 177q-4 16 -8 21q-10 12 -25 12q-14 0 -23 -10q-1 -1 -8 -10q-7 -11 -9 -13q-48 -66 -105.5 -109t-148.5 -65q-54 -13 -110 -11q-32 1 -57.5 13t-35 21.5t-21.5 24.5q-3 3 -3 4q-2 2 -8.5 11
t-8 11t-7 9.5t-8 10.5t-7.5 8.5t-9 9t-9 8t-11 8.5q-43 31 -88.5 44t-82.5 9t-58.5 -9.5t-37.5 -13.5q-29 -14 -52.5 -33t-38 -35.5t-28 -41t-19 -37.5t-14 -37t-10.5 -29q-10 -25 -37 -46q-58 -46 -76 -78q-3 -4 2 -5h3q59 29 115 0q29 -15 46.5 -33t48.5 -63t55 -75
q32 -41 66 -74.5t83 -71t113.5 -66t139.5 -45.5q196 -42 392 29q12 4 42 18t35 17q67 36 123 84q3 2 4 5t1 5q0 12 -12 15v0zM333 456q0 -37 26 -63t63 -26t63 26t26 63t-26 63t-63 26t-63 -26t-26 -63z" />
    <glyph glyph-name="editor1" unicode="&#xe611;" 
d="M512 896q-104 0 -199 -40.5t-163.5 -109t-109 -163.5t-40.5 -199t40.5 -199t109 -163.5t163.5 -109t199 -40.5t199 40.5t163.5 109t109 163.5t40.5 199t-40.5 199t-109 163.5t-163.5 109t-199 40.5zM728 157h-432q-10 0 -17 7t-7 17.5t7 17.5t17 7h432q10 0 17 -7
t7 -17.5t-7 -17.5t-17 -7zM728 359h-432q-10 0 -17 7.5t-7 17.5t7 17.5t17 7.5h432q10 0 17 -7.5t7 -17.5t-7 -17.5t-17 -7.5zM728 562h-432q-10 0 -17 7t-7 17.5t7 17.5t17 7h432q10 0 17 -7t7 -17.5t-7 -17.5t-17 -7v0z" />
    <glyph glyph-name="car1" unicode="&#xe630;" horiz-adv-x="2594" 
d="M1110 540v153v0q0 14 -10 24t-24 10h-246q-10 -7 -26.5 -18t-59 -41t-74.5 -57t-59 -57t-27 -48h492v0q14 0 24 10t10 24v0zM840 693h236v-153h-432q37 36 94.5 80.5t101.5 72.5zM559 211q-70 0 -119.5 -50t-49.5 -120t49.5 -119.5t119.5 -49.5t119.5 49.5t49.5 119.5
t-49.5 120t-119.5 50zM559 -94q-56 0 -95.5 39.5t-39.5 95.5t39.5 96t95.5 40t96 -40t40 -96t-40 -95.5t-96 -39.5zM2151 211v0q-70 0 -119.5 -50t-49.5 -120t49.5 -119.5t119.5 -49.5t119.5 49.5t49.5 119.5t-49.5 120t-119.5 50zM2151 -94v0q-56 0 -95.5 39.5t-39.5 95.5
t39.5 96t95.5 40t96 -40t40 -96t-40 -95.5t-96 -39.5zM1245 506h424q0 18 -23 47.5t-55 58.5t-64.5 55.5t-55.5 42.5l-23 17h-203v0q-21 0 -36 -15t-15 -36v-119q0 -21 15 -36t36 -15zM1233 688q5 5 12 5v0h193q39 -28 90.5 -72.5t85.5 -80.5h-369q-7 0 -12 5t-5 12v119v0
q0 7 5 12zM1364 380h-119q-7 0 -12 -5t-5 -12t5 -12t12 -5h119q7 0 12 5t5 12t-5 12t-12 5zM737 380h-135q-7 0 -12 -5t-5 -12t5 -12t12 -5h135q7 0 12 5t5 12t-5 12t-12 5zM2591 194q-8 66 -110 126q-136 81 -421 141q-5 4 -10 4h-9q-49 10 -98 18.5t-73 11.5l-24 4
q-12 12 -32.5 32t-77 71t-103.5 89.5t-96 70.5t-72 32h-237v34q0 28 -19.5 48t-48.5 20h-16v0q-21 0 -36 -15t-15 -36v-51h-305q-22 0 -67 -27.5t-89.5 -63.5t-92 -78.5t-70 -64t-28.5 -27.5q-13 -4 -34 -10.5t-78.5 -26.5t-106 -40t-100.5 -48t-78 -54h-1q-20 -17 -26 -42
l-17 -220q1 0 0 -6t2.5 -15.5t9.5 -18.5t20.5 -17t35.5 -11q29 -3 307 -11q-2 14 -2 29q0 77 54.5 131.5t131.5 54.5t132 -54.5t55 -131.5q0 -19 -4 -38q634 -14 1092 -14h138q-7 25 -7 52q0 77 54.5 131.5t131.5 54.5t131.5 -54.5t54.5 -131.5q0 -23 -5 -45q91 4 141 10h6
h7q11 0 21.5 2t26 8.5t26.5 18.5t22 33t12 51.5t-3 73.5zM2558 190v-5h-128v0q-21 0 -36 14.5t-15 35.5q0 17 7.5 28t19.5 15.5t21.5 6t19.5 1.5h26q79 -48 85 -96zM1127 845q0 7 5 12t12 5h16q15 0 24.5 -10t9.5 -24v-34h-67v51zM450 500l8 2l6 6q99 97 197.5 175t126.5 78
h677q29 0 137.5 -88.5t220.5 -197.5l8 -8l11 -2h2h-1504q56 20 110 35zM58 320h86v0q28 0 48 -20t20 -48v-17v0q0 -21 -15 -35.5t-36 -14.5h-120l10 122q2 7 7 13zM2538 62q-8 -9 -23 -15t-27 -6h-2h-4h-3h-10q-34 -5 -98 -8v8q0 91 -64.5 155.5t-155.5 64.5t-155.5 -64.5
t-64.5 -155.5v-17h-97q-338 -1 -1055 13v4v4q0 91 -64.5 155.5t-155.5 64.5q-90 0 -154.5 -63.5t-65.5 -153.5q-238 7 -267 10q-38 5 -38 30v1l5 62h122q35 0 60 24.5t25 59.5v17q0 42 -30 72t-72 30h-47q74 46 155 77h1h1h1787q233 -48 375 -114q-33 -7 -51.5 -28.5
t-18.5 -52.5q0 -35 25 -60t60 -25h130q1 -61 -23 -89z" />
    <glyph glyph-name="html1" unicode="&#xe719;" 
d="M866 -127h-694q-32 0 -54.5 22t-22.5 54v871q0 31 22.5 53.5t54.5 22.5h541l229 -239v-708q0 -32 -22 -54t-54 -22zM172 846q-11 0 -18.5 -7.5t-7.5 -18.5v-871q0 -11 7.5 -18.5t18.5 -7.5h694q11 0 18.5 7.5t7.5 18.5v687l-200 210h-520zM917 621h-164q-31 0 -53.5 22.5
t-22.5 53.5v174q0 7 5 14t11 9q5 2 9 2q11 0 19 -8l214 -224q7 -7 7 -17q0 -6 -2 -10q-6 -16 -23 -16v0zM728 808v-111q0 -10 7.5 -17.5t17.5 -7.5h105zM234 335l169 85v-37l-136 -63l136 -63v-37l-169 84v31zM560 497h35l-120 -320h-35zM803 304l-168 -84v37l135 63
l-135 63v37l168 -85v-31z" />
    <glyph glyph-name="sass" unicode="&#xe615;" horiz-adv-x="1372" 
d="M1370 170q-7 57 -57 95q-49 39 -122 42h-12q-49 0 -95 -17q-2 0 -29 -11l-4 7q-1 2 -7.5 14.5t-8.5 17t-5 14.5t-4 18q-4 35 0 50q2 10 13 48q4 12 -7 17q-4 2 -8 2q-10 2 -19 2q-19 0 -38 -6q-11 -3 -13 -13q0 -2 -1.5 -6.5t-1.5 -5.5q-12 -42 -16 -51q-23 -48 -65 -119
q-2 -3 -9 -13q-17 36 -19 49q-5 39 0 60q2 8 13 44q3 10 -5 15q-5 3 -11 4q-9 1 -19 1q-20 0 -39 -6q-8 -3 -11 -12q-13 -43 -17 -54q-46 -104 -93 -208q-5 -10 -22 -42l-6 -10q-3 3 -3 5q0 24 1 27q6 34 17 77q3 12 17 64q3 12 -3.5 19.5t-17.5 9t-19 -4.5q-1 -1 -3 -2
q-1 0 -2 -1q1 7 1 8q4 28 -2 48q-9 32 -40 31q-15 -1 -29 -6q-49 -19 -90 -72q-4 -4 -8 -7q-12 -6 -96 -52l-35 -19q-25 24 -28 26q-17 14 -50 40t-40 32q-50 40 -72 72q-24 34 -25 70q-2 47 25 91q28 46 83 91q46 37 110 73q92 52 168 74q102 30 185 21q42 -5 71 -21
t38 -40q9 -27 2 -57q-12 -51 -57 -99q-62 -66 -157 -100q-52 -18 -107 -22q-48 -4 -87 10q-29 10 -48 33q-5 6 -10 3q-6 -4 -4 -11q6 -15 9 -20q12 -19 38 -36q37 -23 95 -26q70 -3 149 19q109 31 179 108q67 75 76 158q5 49 -15 87q-20 40 -68 65q-56 29 -135 34h-47
q-35 -2 -83.5 -12t-82.5 -23q-64 -23 -118 -50q-144 -72 -227 -162q-54 -59 -75 -118q-2 -8 -10 -41q-1 -3 -2 -3v-19q1 -2 4 -15q11 -43 47 -85q35 -42 104 -91q18 -14 52.5 -38t45.5 -32q1 -1 17 -14q-12 -7 -14 -7q-72 -37 -123 -77q-44 -34 -61 -62q-42 -66 -16 -128
q9 -22 26 -34q6 -4 13 -6q4 -1 35 -7h33q23 2 52 13t48 24q73 50 93 132q15 63 -2 122q-1 5 -4 11q0 1 -1 3t-2 4.5t-2 4.5l76 43l1 -1q-4 -13 -4 -14q-16 -56 -13 -99q3 -58 33 -100q13 -19 38 -19t38 18q10 13 18 27l35 77l2 5q-2 -33 -2 -34q-2 -29 6 -49q8 -23 28 -25
q13 -2 27 10q18 14 30 35q47 87 61 115q4 9 57 129l3 7q12 -47 13 -51q9 -25 24 -55q6 -11 -2 -21q-23 -28 -73 -90q-8 -10 -15 -21q-5 -6 -6 -14v-3q0 -7 4.5 -12.5t10.5 -6.5q15 -3 30 -2q21 1 48 11.5t44 22.5q51 38 38 104q-2 11 -10 34q-3 7 1 13q36 52 74 126l4 6
q12 -65 37 -107l-28 -28q-35 -37 -46 -72q-7 -23 -5 -38t13 -23t26 -5q68 16 105 65q24 32 12 77q0 1 -7 24q29 9 31 10q84 19 160 -10q50 -18 71 -61q13 -28 6 -53t-33 -42l-10 -7q-2 -2 -2 -6v-1q0 -3 6 -3q12 0 29 12q36 25 41 64q0 2 2 2v18q-2 1 -2 3v-1zM304 96
q-5 -70 -61 -120q-33 -29 -71 -35q-18 -3 -30 2q-16 7 -17 31q0 26 17 56q15 27 52 57q39 32 101 69l3 1q8 -32 6 -61v0zM580 308q-4 -23 -11 -46q-20 -67 -58 -153q-1 -3 -15 -26q0 -1 -3 -4q-10 -10 -15 3q-5 14 -8 29q0 2 -2 21q1 70 41 135q20 32 40 45q8 5 17 7
q7 2 11 -1t3 -10v0zM767 69l68 79q2 -22 -25 -53.5t-43 -25.5zM983 122q-3 -1 -8.5 -3.5t-6.5 -3.5q-6 -3 -6 4v0q0 4 1 8q5 20 20 44t31 38h0.5t0.5 1q4 -12 4 -25q0 -17 -10.5 -35.5t-25.5 -27.5v0z" />
    <glyph glyph-name="todolist" unicode="&#xe946;" 
d="M924 356q-15 0 -25.5 -10.5t-10.5 -25.5v-312h-752v752h568q15 0 25.5 10.5t10.5 25.5t-10.5 25.5t-25.5 10.5h-568q-30 0 -51 -21t-21 -51v-752q0 -30 21 -51t51 -21h752q30 0 51 21t21 51v312q0 15 -10.5 25.5t-25.5 10.5zM316 418q-10 10 -25 10t-25.5 -10.5
t-10.5 -25.5t11 -25l178 -179q8 -8 20 -10q18 -3 32 10l454 454q10 11 10 26t-10.5 25.5t-25.5 10.5t-25 -11l-429 -429z" />
    <glyph glyph-name="tree" unicode="&#xe624;" 
d="M429 872q-46 0 -83 -26t-53 -68h-5q-58 0 -100.5 -41.5t-45.5 -101.5q-35 -16 -56.5 -48t-21.5 -72q0 -59 44 -99q-4 -14 -4 -38q0 -62 42 -106.5t103 -44.5q22 0 44 7l110 -138q11 -14 11 -56l1 -131q0 -12 -14 -21t-27 -13l-14 -3h293q-2 0 -5 0.5t-10.5 2.5t-13 5.5
t-10 10.5t-4.5 17v152q0 24 2 34t13 27l70 108q72 -24 129.5 10t60.5 88q31 17 49.5 46.5t18.5 66.5q0 38 -20.5 70.5t-53.5 47.5q19 35 19 63q0 54 -38.5 92.5t-92.5 38.5q-3 0 -14 -1q-13 47 -51 76.5t-88 29.5q-43 0 -83 -27q-44 42 -102 42zM385 320q19 -26 64 -47
q0 -8 0.5 -22t0.5 -23.5t-1 -20t-4 -17t-9 -9.5q-10 -4 -24.5 5t-30 27t-23.5 28t-14 20q7 5 10 9q16 14 31 50zM605 304q3 -7 6.5 -17t5 -13t6.5 -8.5t14 -10.5q-2 -3 -19 -28t-35 -45t-32 -22q-6 -1 -10.5 -1.5t-8 1t-6 2.5t-4 4.5t-2.5 6t-2 8.5t-1 9t-0.5 11.5
t-1.5 13.5v9t-0.5 19t-1.5 17q53 4 92 44z" />
    <glyph glyph-name="editor2" unicode="&#xe6fd;" 
d="M111 196q0 9 26 34l68 69l426 435l222 -231l-256 -247l-94 -94q-12 -17 -40 -44.5t-36 -40.5l-60 -60l-26 -26l-25 -25q-17 -17 -34 -17q-4 -4 -10.5 -6t-19 -5t-22.5 -6q-12 -5 -33.5 -13.5t-34.5 -12.5q-5 -1 -17 -5.5t-17.5 -6t-15 -3.5t-18.5 -2q-34 -17 -43 -17
q-34 0 -42.5 8.5t-8.5 42.5q0 2 4.5 19t4.5 32q4 10 8.5 33.5t8.5 35.5q2 6 6 17t5.5 16.5t3.5 12.5t2 13q9 10 15.5 20.5t9.5 14.5q0 6 5.5 16.5t11.5 17.5q0 12 26 25zM1015 768q0 -4 4.5 -12.5t4.5 -13.5v-25q0 -17 -9 -34q0 -9 -17 -26l-25 -26l-17 -17l-17 -17
l-222 214l34 34q17 8 34 25q6 7 17 12t17 5q9 9 34.5 9t33.5 -9q5 0 13.5 -4t12.5 -4q17 -9 51 -43q9 -9 17 -18.5t11.5 -14.5t11.5 -17.5t11 -17.5zM521 -60zM461 -59.5q0 -24.5 17.5 -42t42 -17.5t42 17.5t17.5 42t-17.5 42t-42 17.5t-42 -17.5t-17.5 -42zM708 -60z
M649 -59.5q0 -24.5 17.5 -42t42 -17.5t42 17.5t17.5 42t-17.5 42t-42 17.5t-42 -17.5t-17.5 -42zM887 -60zM828 -59.5q0 -24.5 17.5 -42t42 -17.5t42 17.5t17.5 42t-17.5 42t-42 17.5t-42 -17.5t-17.5 -42z" />
    <glyph glyph-name="cloud" unicode="&#xe69f;" horiz-adv-x="1206" 
d="M935 372q106 0 180.5 -73t74.5 -177q0 -64 -32 -121h-78q42 39 42 121q0 69 -58.5 128t-128.5 59h-113v105q0 87 -70 159.5t-157 72.5q-88 0 -160 -72.5t-72 -159.5v-105h-108q-70 0 -130.5 -59t-60.5 -128t60.5 -128t130.5 -59h678v-63h-720v4q-92 15 -152.5 84.5
t-60.5 161.5q0 104 74.5 177t180.5 73q23 0 47 -4q-4 23 -4 46q0 121 87 206.5t210 85.5t210.5 -85.5t87.5 -206.5q0 -21 -4 -46q24 4 46 4zM767 286h-3q1 1 2 2.5l1 1.5v-4v0zM428 286h-3v4q1 0 2 -1.5t1 -2.5zM1039 681q20 -27 34.5 -71t14.5 -79q0 -18 -3 -37l-57 3
q2 17 2 33q0 27 -11 61.5t-27 56.5q-51 69 -137 81l15 55q106 -17 169 -103zM1204 492l-59 2q15 123 -57.5 222.5t-194.5 123.5l16 56q141 -30 226 -146q29 -40 50 -104t21 -113q0 -21 -2 -41z" />
    <glyph glyph-name="move" unicode="&#xe844;" 
d="M512 -69q-3 0 -6 1q-3 0 -7 4l-109 109q-13 13 0 26q6 6 13.5 6t12.5 -6l78 -78v262q0 8 5 13.5t13 5.5t13 -5.5t5 -13.5v-262l78 78q5 6 12.5 6t13 -6t5.5 -13t-5 -13l-109 -109q-4 -4 -7 -4q-3 -1 -6 -1zM838 257q-7 0 -13 5q-13 13 0 26l78 78h-262q-8 0 -13.5 5
t-5.5 13t5.5 13t13.5 5h262l-78 78q-6 5 -6 12.5t6 13t13 5.5t13 -5l109 -109q4 -4 4 -7q2 -6 0 -12q0 -3 -4 -7l-109 -109q-6 -5 -13 -5zM512 494q-8 0 -13 5.5t-5 13.5v262l-78 -78q-5 -6 -12.5 -6t-13.5 6q-5 5 -5 13t5 13l109 109q4 4 7 4q6 2 12 0q3 0 7 -4l109 -109
q13 -13 0 -26q-6 -6 -13.5 -6t-12.5 6l-78 78v-262q0 -8 -5 -13.5t-13 -5.5zM186 257q-7 0 -13 5l-109 109q-4 4 -4 7q-2 6 0 12v1l1 1l1 1q1 3 2 4l109 109q6 5 13 5t13 -5.5t6 -13t-6 -12.5l-78 -78h262q8 0 13.5 -5t5.5 -13t-5.5 -13t-13.5 -5h-262l78 -78q13 -13 0 -26
q-6 -5 -13 -5z" />
    <glyph glyph-name="jquery-copy" unicode="&#xe602;" 
d="M697 132q9 5 31.5 22t37.5 22q-31 -46 -56 -75.5t-60.5 -59.5t-80 -45.5t-99.5 -19.5q-161 -12 -311 92q-49 34 -54 39q-3 2 -3 10t-2 10q-5 4 -22.5 20.5t-31 31t-20.5 26.5q-5 7 -11 25t-9 24q-17 36 -28 83t-12 100.5t15 99.5q3 9 9 19t10.5 16.5t13 18t12.5 15.5
q3 5 13.5 18.5t17.5 23.5t13 21q-1 -16 -12 -66t-8 -90q9 -118 78 -213t169 -153q1 -1 7.5 0t7.5 0q12 -14 59 -30q69 -25 166.5 -21.5t159.5 36.5v0zM697 132zM766 386q-69 -153 -247 -142q-55 4 -109.5 29t-96.5 65t-71 91.5t-32.5 107t18.5 113.5q3 7 9 15.5t14 18
t12 15.5q1 1 7.5 10.5t9.5 13.5t9.5 10t12.5 10q-29 -63 -22 -123.5t40 -114t79 -93t96 -60.5q57 -25 146 -14t125 48v0zM766 386zM614 728q1 -41 20 -79t51.5 -64t71.5 -41.5t84 -13.5t84 22q-19 -49 -71 -69.5t-111.5 -9t-103.5 49.5q-57 48 -64.5 123.5t44.5 135.5
q6 -13 5 -19t-5.5 -17t-4.5 -18v0zM614 728z" />
    <glyph glyph-name="html2" unicode="&#xe606;" 
d="M38 895h948l-77 -900l-402 -123l-383 123zM797 623l23 137l-611 1l40 -409h397v-108l-133 -47l-139 50l-8 58l-110 -2l17 -144l234 -82l245 78l32 330h-433l-10 138h456zM797 623z" />
    <glyph glyph-name="vue" unicode="&#xe60c;" 
d="M512 -5l-445 778h343l22 -37l80 -141l80 142l17 37h348l-445 -779v0zM651 725l-139 -220l-139 220h-78l217 -390l217 390h-78zM779 725l-267 -469l-267 469h-87l354 -630l354 630h-87z" />
    <glyph glyph-name="Webpack" unicode="&#xe60e;" 
d="M926 635l-2 3l-2 -1l-407 235l-423 -244v-488l418 -241l5 -3l422 244v488zM737 266v242l182 107v-454zM110 161v447l182 -106v-234zM310 492l184 -106l-184 -108v214zM319 507l196 113l190 -110l-194 -114zM512 376l198 -115l-195 -113l-198 114zM529 386l190 111v-221z
M904 626l-181 -106l-208 121l-214 -123l-182 105l396 228zM111 618l-1 -1v1h1zM119 145l181 106l215 -124l213 124l182 -106l-395 -228zM515 -117l-434 251v500l434 251l407 -235l6 3l6 -10l14 -9v-500zM141 145l374 -215l373 215l-160 93l-213 -124l-215 124zM340 262
l175 -101l173 100l-176 102zM748 273l160 -93v415l-160 -94v-228zM121 588v-407l160 93v222zM552 386l156 -90v182zM321 472v-174l150 88zM342 507l169 -98l172 101l-168 97zM142 623l159 -92l214 123l208 -121l158 93l-366 212z" />
    <glyph glyph-name="social-javascript" unicode="&#xe744;" 
d="M416 720h-160v-425q0 -75 -24.5 -105t-74.5 -30q-41 0 -76 13l-17 -125q47 -16 110 -16q242 0 242 262v426zM765 736q-114 0 -183.5 -57.5t-69.5 -146.5q0 -135 185 -204q60 -21 85.5 -42.5t25.5 -52.5q0 -34 -27 -54.5t-78 -20.5q-82 0 -161 43v0l-30 -126
q31 -18 80 -30.5t102 -12.5q130 0 198 60t68 151q0 73 -41.5 122t-129.5 83q-70 28 -96 47t-26 50q0 28 25 47t71 19q66 0 133 -35l38 128q-73 32 -169 32z" />
    <glyph glyph-name="basic_todolist_pen" unicode="&#xe6d6;" 
d="M256 528h352v-32h-352v32zM256 368h352v-32h-352v32zM256 208h352v-32h-352v32zM256 48h352v-32h-352v32zM128 528h64v-32h-64v32zM128 368h64v-32h-64v32zM128 208h64v-32h-64v32zM128 48h64v-32h-64v32zM736 784h-216l-12 48h-60v64h-160v-64h-60l-12 -48h-216v-912
h736v912zM252 800h68v64h96v-64h68l24 -96h-280zM704 -96h-672v848h176l-20 -80h360l-20 80h176v-848zM1024 864h-160v-64h-64v-176h32v144h32v-724l80 -160l80 160v820zM992 52l-48 -96l-48 96v780h96v-780z" />
    <glyph glyph-name="branch-ball" unicode="&#xe7d2;" 
d="M320 576zM288 575.5q0 -13.5 9.5 -23t23 -9.5t23 9.5t9.5 23t-9.5 23t-23 9.5t-23 -9.5t-9.5 -23zM498 561zM444 561.5q0 -22.5 16 -38.5t38.5 -16t38 16t15.5 38.5t-15.5 38.5t-38 16t-38.5 -16t-16 -38.5zM932 381zM886 381q0 -19 13.5 -32.5t32 -13.5t32 13.5
t13.5 32.5t-13.5 32t-32 13t-32 -13t-13.5 -32zM881 204zM854 204q0 -11 8 -19t19 -8t19 8t8 19t-8 19t-19 8t-19 -8t-8 -19zM980 244zM954 244.5q0 -10.5 7.5 -18t18 -7.5t18 7.5t7.5 18t-7.5 18t-18 7.5t-18 -7.5t-7.5 -18zM579 417zM552 417q0 -11 8 -19t19 -8t19 8t8 19
t-8 19t-19 8t-19 -8t-8 -19zM486 331zM458 331.5q0 -11.5 8.5 -20t20 -8.5t19.5 8.5t8 20t-8 19.5t-19.5 8t-20 -8t-8.5 -19.5zM566 184zM498 184q0 -28 20 -48t48 -20t48 20t20 48t-20 48t-48 20t-48 -20t-20 -48zM276 415zM230 415.5q0 -18.5 13.5 -32t32.5 -13.5t32 13.5
t13 32t-13 32t-32 13.5t-32.5 -13.5t-13.5 -32zM221 289zM201 289q0 -8 6 -14t14 -6t14 6t6 14t-6 14t-14 6t-14 -6t-6 -14zM314 185zM281 185q0 -14 9.5 -23.5t23.5 -9.5t23.5 9.5t9.5 23.5t-9.5 24t-23.5 10t-23.5 -10t-9.5 -24zM433.5 771q-108.5 0 -201 -54
t-146.5 -146.5t-54 -201t54 -201t146.5 -146t201 -53.5t201 53.5t146 146t53.5 201t-53.5 201t-146 146.5t-201 54zM433.5 33q-91.5 0 -169 45t-123 122.5t-45.5 169t45.5 169t123 123t169 45.5t169 -45.5t122.5 -123t45 -169t-45 -169t-122.5 -122.5t-169 -45z" />
    <glyph glyph-name="lightbulb" unicode="&#xe645;" 
d="M533 661q-8 0 -14.5 -6t-6.5 -15t6.5 -15t14.5 -6q35 0 59.5 -24.5t24.5 -59.5q0 -9 6.5 -15t15 -6t15 6t6.5 15q0 52 -37 89t-90 37zM533.5 853q-86.5 0 -160.5 -42.5t-117 -116.5t-43 -161q0 -96 55 -177l3 -6q56 -79 74 -116t18 -63v-128q0 -18 12.5 -30.5t29.5 -12.5
h86q0 -17 12 -30q13 -13 30.5 -13t30.5 13q12 13 12 30h85q18 0 30.5 12.5t12.5 30.5v128q0 27 18 63.5t73 115.5q24 34 41 88t17 95q0 87 -42.5 161t-116.5 116.5t-160.5 42.5zM619 85h-171v43h171v-43zM725 399q-88 -126 -102 -186h-47v86q0 17 -12.5 29.5t-30 12.5
t-30 -12.5t-12.5 -29.5v-86h-48q-13 59 -98 180l-3 6q-18 25 -30.5 64.5t-12.5 69.5q0 97 68.5 166t165.5 69t166 -69t69 -166q0 -30 -12.5 -69.5t-30.5 -64.5z" />
    <glyph glyph-name="scale" unicode="&#xe714;" 
d="M858 680l-622 -623h-1l-73 74v0l623 622l99 -99l3.5 4t7.5 7l4 4q26 26 26 62.5t-26 62.5t-62.5 26t-62.5 -26q0 -1 -2 -2.5t-5 -5t-5.5 -5.5l-2.5 -2v0l-228 -228l-296 295l-170 -170l295 -296l-227 -227q-3 -3 -5 -8l-36 -136q-1 -2 -1 -5q0 -7 5.5 -12.5t12.5 -5.5
q3 0 5 1l136 36q4 2 8 5l626 626zM116 676l119 119l30 -30l-23 -23l25 -26l24 24l28 -29l-41 -42l25 -25l42 41l29 -28l-24 -24l26 -25l23 23l29 -29l-42 -41l26 -26l42 42l28 -29l-23 -23l23 -23l-96 -96zM671 410l-13 -12v0l-36 -37l26 -25l23 23l29 -28l-42 -42l26 -26
l41 42l29 -29l-23 -23l25 -26l24 24l28 -29l-41 -42l26 -25l41 41l29 -28l-24 -24l26 -26l23 24l12 -12l-119 -119l-255 255l-25 -26l280 -280l170 170z" />
    <glyph glyph-name="icon-test" unicode="&#xe62b;" 
d="M539 -14l-1 562q0 11 -7.5 19t-18.5 8t-18.5 -8t-7.5 -19v-562q0 -11 8 -18.5t19 -7.5t18.5 7.5t7.5 18.5zM625 133l-132 -132q-7 -8 -7 -18.5t7.5 -18.5t18.5 -8t19 8l131 132q8 7 8 18t-7.5 19t-18.5 8t-19 -8zM531 1l-132 132q-8 8 -19 8t-18.5 -8t-7.5 -19t8 -18
l131 -132q8 -8 19 -8t18.5 8t7.5 18.5t-7 18.5zM314 652q-15 2 -26 2q-93 0 -158.5 -65.5t-65.5 -158.5t65.5 -158.5t158.5 -65.5q11 0 18.5 7.5t7.5 18.5t-7.5 18.5t-18.5 7.5q-71 0 -121 50.5t-50 121.5t50 121t121 50q9 0 19.5 -1t19 5.5t10 17.5t-5.5 19.5t-17 9.5z
M771 605q-15 90 -85 148.5t-161 58.5q-83 0 -149.5 -49.5t-89.5 -128.5q-4 -11 1.5 -20.5t16 -12.5t20 2t12.5 15q19 63 71.5 102t117.5 39q72 0 127 -46t68 -117q1 -11 10 -17t20 -4t17 11t4 19zM749 206q87 0 149 61.5t62 149t-62 149t-149 61.5h-3h-1q-11 0 -18.5 -8
t-7.5 -19t8 -18.5t19 -7.5q2 0 3 1v0q1 0 0 0q66 0 112 -46.5t46 -112t-46 -112t-112 -46.5q-11 0 -18.5 -7.5t-7.5 -18.5t7.5 -18.5t18.5 -7.5z" />
  </font>
</defs>
</svg>
